<svg width="12" height="12" viewBox="0 0 12 12" fill="none" xmlns="http://www.w3.org/2000/svg">
<path d="M1.32172 3.19015H10.684C11.3676 3.19015 11.7123 2.79464 11.7123 2.11663V1.57987C11.7123 0.901855 11.3676 0.506348 10.684 0.506348H1.32172C0.666308 0.506348 0.28775 0.901855 0.28775 1.57987V2.11663C0.28775 2.79464 0.638057 3.19015 1.32172 3.19015ZM2.8981 11.0664H9.10192C10.2658 11.0664 10.9043 10.4449 10.9043 9.28097V4.02072H1.09572V9.28097C1.09572 10.4449 1.73418 11.0664 2.8981 11.0664ZM4.18068 6.17906C3.91512 6.17906 3.72302 5.98696 3.72302 5.7101V5.5293C3.72302 5.24679 3.91512 5.06034 4.18068 5.06034H7.825C8.09621 5.06034 8.28831 5.24679 8.28831 5.5293V5.7101C8.28831 5.98696 8.09056 6.17906 7.825 6.17906H4.18068Z" fill="white"/>
</svg>
