<svg width="40" height="38" viewBox="0 0 40 38" fill="none" xmlns="http://www.w3.org/2000/svg">
<path d="M39.0006 17.3093L30.9525 24.2346L33.3633 34.5451C33.4909 35.0841 33.4545 35.6482 33.2587 36.1669C33.0629 36.6856 32.7163 37.1359 32.2623 37.4615C31.8083 37.787 31.2671 37.9734 30.7062 37.9974C30.1454 38.0213 29.5899 37.8817 29.1091 37.596L19.9884 32.1416L10.8874 37.596C10.4066 37.8817 9.85102 38.0213 9.29018 37.9974C8.72934 37.9734 8.1881 37.787 7.73412 37.4615C7.28014 37.1359 6.93357 36.6856 6.73774 36.1669C6.54191 35.6482 6.50551 35.0841 6.63308 34.5451L9.0404 24.2451L0.990446 17.3093C0.564676 16.9473 0.2568 16.4693 0.105426 15.9354C-0.0459479 15.4015 -0.0340809 14.8355 0.139539 14.3082C0.313158 13.7809 0.640802 13.3159 1.08138 12.9715C1.52196 12.6271 2.05587 12.4187 2.61614 12.3722L13.2269 11.4661L17.3687 1.72569C17.585 1.21459 17.9499 0.778016 18.4173 0.470936C18.8847 0.163856 19.4338 0 19.9955 0C20.5572 0 21.1064 0.163856 21.5738 0.470936C22.0412 0.778016 22.4061 1.21459 22.6223 1.72569L26.7767 11.4661L37.3839 12.3722C37.9441 12.4187 38.478 12.6271 38.9186 12.9715C39.3592 13.3159 39.6868 13.7809 39.8605 14.3082C40.0341 14.8355 40.0459 15.4015 39.8946 15.9354C39.7432 16.4693 39.4353 16.9473 39.0096 17.3093H39.0006Z" fill="#9C9C9C"/>
</svg>
