<svg width="18" height="17" viewBox="0 0 18 17" fill="none" xmlns="http://www.w3.org/2000/svg">
<path d="M8.9999 9.08733C9.16563 9.08733 9.31756 9.03209 9.47639 8.87326L11.7207 6.71177C11.8312 6.60128 11.8934 6.47698 11.8934 6.31124C11.8934 6.00049 11.6448 5.7726 11.3409 5.7726C11.1821 5.7726 11.0302 5.83475 10.9197 5.95905L9.99432 6.93966L9.57997 7.43687L9.64903 6.40102V1.22175C9.64903 0.883371 9.35899 0.586426 8.9999 0.586426C8.64771 0.586426 8.35767 0.883371 8.35767 1.22175V6.40102L8.42672 7.44378L8.00548 6.93966L7.08702 5.95905C6.97653 5.83475 6.8177 5.7726 6.65887 5.7726C6.35502 5.7726 6.10641 6.00049 6.10641 6.31124C6.10641 6.47698 6.16856 6.60128 6.28596 6.71177L8.53031 8.87326C8.68914 9.03209 8.84106 9.08733 8.9999 9.08733ZM3.08862 16.0621H14.9043C16.4028 16.0621 17.1831 15.2886 17.1831 13.8108V9.75718C17.1831 9.02518 17.0934 8.63156 16.7619 8.2034L14.483 5.27539C13.6543 4.20501 13.1295 3.65946 11.8658 3.65946H10.9266V4.79199H11.9279C12.4113 4.79199 12.8878 5.19252 13.2055 5.59996L15.5672 8.70752C15.802 9.01828 15.7122 9.14948 15.36 9.14948H11.0302C10.6711 9.14948 10.5053 9.40499 10.5053 9.67432V9.70194C10.5053 10.4478 9.92526 11.2419 8.9999 11.2419C8.06763 11.2419 7.48755 10.4478 7.48755 9.70194V9.67432C7.48755 9.40499 7.32872 9.14948 6.96272 9.14948H2.63975C2.28066 9.14948 2.20469 8.99756 2.43258 8.70752L4.79433 5.59996C5.11199 5.19252 5.58848 4.79199 6.07188 4.79199H7.07321V3.65946H6.13403C4.87029 3.65946 4.34546 4.1981 3.51678 5.27539L1.23099 8.2034C0.906424 8.63846 0.81665 9.02518 0.81665 9.75718V13.8108C0.81665 15.2886 1.59699 16.0621 3.08862 16.0621ZM3.15768 14.6809C2.52236 14.6809 2.17707 14.3495 2.17707 13.6865V10.3649H6.31358C6.53456 11.5941 7.60495 12.5057 8.9999 12.5057C10.3948 12.5057 11.4652 11.5941 11.6862 10.3649H15.8227V13.6865C15.8227 14.3495 15.4705 14.6809 14.8352 14.6809H3.15768Z" fill="white"/>
</svg>
