<svg width="28" height="28" viewBox="0 0 28 28" fill="none" xmlns="http://www.w3.org/2000/svg">
<path fill-rule="evenodd" clip-rule="evenodd" d="M14 25C20.0751 25 25 20.0751 25 14C25 7.92487 20.0751 3 14 3C7.92487 3 3 7.92487 3 14C3 20.0751 7.92487 25 14 25ZM18.8928 10.4611C19.1474 10.0602 19.0289 9.52875 18.628 9.27408C18.2271 9.01941 17.6956 9.13796 17.4409 9.53887L12.8949 16.6953L10.6688 13.9436C10.37 13.5744 9.82851 13.5172 9.45925 13.816C9.09 14.1147 9.03284 14.6562 9.33157 15.0255L12.3105 18.7076C12.4847 18.9228 12.7518 19.0411 13.0283 19.0253C13.3047 19.0094 13.5566 18.8615 13.705 18.6278L18.8928 10.4611Z" fill="#2BCBBB"/>
</svg>
